# xmcd
# Copyright (C) 1995-1998 Ti Kan
#
# Track frame offsets:
#       150
#       16196
#       30638
#       49533
#       67129
#       83259
#       102598
#       118888
#       135963
#       154043
#       170526
#       191082
#       212958
#       230357
#       250024
#
# Disc length: 3578 seconds
#
# Revision: 0
# Processed by: cddbd v1.5.2PL0 Copyright (c) Steve Scherf et al.
# Submitted via: CD-Import v1.0
#
DISCID=c20df80f
DTITLE=Bandit - Zrugg Id Zuäkunft
DYEAR=2010
DGENRE=
TTITLE0=Zrugg Id Zuäkunft (Feat. Lou Geniuz)
TTITLE1=Mehr Drvo
TTITLE2=Nöd Allei
TTITLE3=Läbä (Feat. Lou Geniuz)
TTITLE4=Dschungelmusig
TTITLE5=Lifestyle
TTITLE6=Alles Okay (Feat. Franky Kubrick and Leon Taylor)
TTITLE7=Rudeness (Feat. Phenomden)
TTITLE8=Heb Di Fescht
TTITLE9=Magisch (Feat. Miss Platnum)
TTITLE10=Mach D'augä Zuä
TTITLE11=Fresh
TTITLE12=Wänns Fühlsch
TTITLE13=Bis Zur Sunnä
TTITLE14=Ihr Da Uss
EXTD=
EXTT0=
EXTT1=
EXTT2=
EXTT3=
EXTT4=
EXTT5=
EXTT6=
EXTT7=
EXTT8=
EXTT9=
EXTT10=
EXTT11=
EXTT12=
EXTT13=
EXTT14=
PLAYORDER=
